<?xml version="1.0" encoding="utf-8"?>
<svg xml:space="preserve" viewBox="0 0 100 100" y="0" x="0" xmlns="http://www.w3.org/2000/svg" id="Layer_1" version="1.1" style="height: 100%; width: 100%; background: none; shape-rendering: auto; animation-play-state: running; animation-delay: 0s;" width="186px" height="186px"><g class="ldl-scale" style="transform-origin: 50% 50%; transform: rotate(0deg) scale(1, 1); animation-play-state: running; animation-delay: 0s;"><g class="ldl-ani" style="animation-play-state: running; animation-delay: 0s;"><g class="ldl-layer" style="animation-play-state: running; animation-delay: 0s;"><g class="ldl-ani" style="transform-origin: 50px 50px; transform: scale(0.91); animation: 0.970874s linear -0.606796s infinite alternate forwards running breath-89b9db34-f24b-4a58-81e1-acaef4dbfe43;"><path fill="#e15c64" d="M92.5 50c0 7.2-1.9 14.4-5.4 20.7C79.6 84.2 65.4 92.5 50 92.5c-1.6 0-3-1.3-3-3 0-1.6 1.3-3 3-3 13.2 0 25.5-7.2 31.9-18.7 3-5.4 4.6-11.6 4.6-17.8 0-6.6-1.8-13.1-5.2-18.7-.8-1.4-.4-3.2 1-4.1 1.4-.8 3.2-.4 4.1 1 4 6.6 6.1 14.1 6.1 21.8z" style="fill: rgb(158, 1, 24); animation-play-state: running; animation-delay: 0s;"></path></g></g><g class="ldl-layer" style="animation-play-state: running; animation-delay: 0s;"><g class="ldl-ani" style="transform-origin: 50px 50px; transform: scale(0.91); animation: 0.970874s linear -0.728155s infinite alternate forwards running breath-89b9db34-f24b-4a58-81e1-acaef4dbfe43;"><path fill="#e15c64" d="M18.6 31.3c6.6-11 18.6-17.8 31.4-17.8 1.6 0 3-1.3 3-3s-1.3-3-3-3c-14.9 0-28.9 7.9-36.5 20.7-3.9 6.6-6 14.1-6 21.8 0 7.2 1.9 14.4 5.4 20.7.5 1 1.6 1.5 2.6 1.5.5 0 1-.1 1.4-.4 1.4-.8 1.9-2.6 1.1-4-3-5.4-4.6-11.6-4.6-17.8 0-6.6 1.8-13.1 5.2-18.7z" style="fill: rgb(158, 1, 24); animation-play-state: running; animation-delay: 0s;"></path></g></g><g class="ldl-layer" style="animation-play-state: running; animation-delay: 0s;"><g class="ldl-ani" style="transform-origin: 50px 50px; transform: scale(0.91); animation: 0.970874s linear -0.849515s infinite alternate forwards running breath-89b9db34-f24b-4a58-81e1-acaef4dbfe43;"><path fill="#f47e5f" d="M53 74.7c0-1.6-1.3-3-3-3-7.9 0-15.3-4.3-19.1-11.3-1.7-3.2-2.7-6.8-2.7-10.4 0-4 1.1-7.9 3.2-11.3.9-1.4.4-3.2-1-4.1-1.4-.9-3.2-.4-4.1 1-2.6 4.3-4 9.3-4 14.4 0 4.6 1.2 9.2 3.4 13.3 4.9 8.9 14.2 14.4 24.3 14.4 1.6 0 3-1.4 3-3z" style="fill: rgb(232, 232, 232); animation-play-state: running; animation-delay: 0s;"></path></g></g><g class="ldl-layer" style="animation-play-state: running; animation-delay: 0s;"><g class="ldl-ani" style="transform-origin: 50px 50px; transform: scale(0.91); animation: 0.970874s linear -0.970874s infinite alternate forwards running breath-89b9db34-f24b-4a58-81e1-acaef4dbfe43;"><path fill="#f47e5f" d="M47 25.3c0 1.6 1.3 3 3 3 7.6 0 14.6 3.9 18.6 10.4 2.1 3.4 3.2 7.3 3.2 11.3 0 3.6-.9 7.3-2.7 10.4-.8 1.4-.3 3.2 1.2 4 .5.2.9.4 1.4.4 1 0 2.1-.6 2.6-1.5 2.2-4 3.4-8.6 3.4-13.3 0-5.1-1.4-10.1-4-14.4-5.1-8.3-14-13.3-23.7-13.3-1.6 0-3 1.4-3 3z" style="fill: rgb(232, 232, 232); animation-play-state: running; animation-delay: 0s;"></path></g></g><metadata xmlns:d="https://loading.io/stock/" style="animation-play-state: running; animation-delay: 0s;">
<d:name style="animation-play-state: running; animation-delay: 0s;">ring</d:name>
<d:tags style="animation-play-state: running; animation-delay: 0s;">onion,tree ring,curve bar,circle,concentric,c,round,bracket,ring,spinner</d:tags>
<d:license style="animation-play-state: running; animation-delay: 0s;">by</d:license>
<d:slug style="animation-play-state: running; animation-delay: 0s;">d47xk2</d:slug>
</metadata></g></g><style id="breath-89b9db34-f24b-4a58-81e1-acaef4dbfe43" data-anikit="">@keyframes breath-89b9db34-f24b-4a58-81e1-acaef4dbfe43
{
  0% {
    animation-timing-function: cubic-bezier(0.9647,0.2413,-0.0705,0.7911);
    transform: scale(0.9099999999999999);
  }
  51% {
    animation-timing-function: cubic-bezier(0.9226,0.2631,-0.0308,0.7628);
    transform: scale(1.02994);
  }
  100% {
    transform: scale(0.9099999999999999);
  }
}</style><!-- [ldio] generated by https://loading.io/ --></svg>